<?xml version="1.0" encoding="iso-8859-1"?>
<!-- Uploaded to: SVG Repo, www.svgrepo.com, Generator: SVG Repo Mixer Tools -->
<svg fill="#000000" height="800px" width="800px" version="1.1" id="Layer_1" xmlns="http://www.w3.org/2000/svg" xmlns:xlink="http://www.w3.org/1999/xlink" 
	 viewBox="0 0 512 512" xml:space="preserve">
<g>
	<g>
		<path d="M415.437,0H96.561c-25.07,0-45.468,20.396-45.468,45.467v421.066c0,25.07,20.396,45.467,45.468,45.467h318.877
			c25.07,0,45.468-20.396,45.468-45.467V45.467C460.906,20.396,440.508,0,415.437,0z M174.021,429.546h-37.195
			c-10.345,0-18.732-8.387-18.732-18.732c0-10.345,8.387-18.732,18.732-18.732h37.195c10.345,0,18.732,8.387,18.732,18.732
			C192.752,421.159,184.366,429.546,174.021,429.546z M174.021,363.084h-37.195c-10.345,0-18.732-8.387-18.732-18.732
			s8.387-18.732,18.732-18.732h37.195c10.345,0,18.732,8.387,18.732,18.732S184.366,363.084,174.021,363.084z M174.021,296.623
			h-37.195c-10.345,0-18.732-8.387-18.732-18.732s8.387-18.732,18.732-18.732h37.195c10.345,0,18.732,8.387,18.732,18.732
			S184.366,296.623,174.021,296.623z M274.592,429.546h-37.195c-10.345,0-18.732-8.387-18.732-18.732
			c0-10.345,8.387-18.732,18.732-18.732h37.195c10.345,0,18.732,8.387,18.732,18.732
			C293.324,421.159,284.937,429.546,274.592,429.546z M274.592,363.084h-37.195c-10.345,0-18.732-8.387-18.732-18.732
			s8.387-18.732,18.732-18.732h37.195c10.345,0,18.732,8.387,18.732,18.732S284.937,363.084,274.592,363.084z M274.592,296.623
			h-37.195c-10.345,0-18.732-8.387-18.732-18.732s8.387-18.732,18.732-18.732h37.195c10.345,0,18.732,8.387,18.732,18.732
			S284.937,296.623,274.592,296.623z M375.164,429.546h-37.195c-10.345,0-18.732-8.387-18.732-18.732
			c0-10.345,8.387-18.732,18.732-18.732h37.195c10.345,0,18.732,8.387,18.732,18.732
			C393.896,421.159,385.509,429.546,375.164,429.546z M375.164,363.084h-37.195c-10.345,0-18.732-8.387-18.732-18.732
			s8.387-18.732,18.732-18.732h37.195c10.345,0,18.732,8.387,18.732,18.732C393.896,354.697,385.509,363.084,375.164,363.084z
			 M375.164,296.623h-37.195c-10.345,0-18.732-8.387-18.732-18.732s8.387-18.732,18.732-18.732h37.195
			c10.345,0,18.732,8.387,18.732,18.732C393.896,288.236,385.509,296.623,375.164,296.623z M393.905,204.005
			c0,10.345-8.387,18.732-18.732,18.732H136.826c-10.345,0-18.732-8.387-18.732-18.732V101.186c0-10.345,8.387-18.732,18.732-18.732
			h238.347c10.345,0,18.732,8.387,18.732,18.732V204.005z"/>
	</g>
</g>
</svg>